<?xml version="1.0" encoding="UTF-8" standalone="no"?>
<svg
   xmlns:dc="http://purl.org/dc/elements/1.1/"
   xmlns:cc="http://creativecommons.org/ns#"
   xmlns:rdf="http://www.w3.org/1999/02/22-rdf-syntax-ns#"
   xmlns:svg="http://www.w3.org/2000/svg"
   xmlns="http://www.w3.org/2000/svg"
   xmlns:sodipodi="http://sodipodi.sourceforge.net/DTD/sodipodi-0.dtd"
   xmlns:inkscape="http://www.inkscape.org/namespaces/inkscape"
   version="1.1"
   id="svg833"
   xml:space="preserve"
   width="288"
   height="288"
   viewBox="0 0 288 288"
   sodipodi:docname="logo.svg"
   inkscape:version="1.0.1 (3bc2e813f5, 2020-09-07)"><metadata
     id="metadata839"><rdf:RDF><cc:Work
         rdf:about=""><dc:format>image/svg+xml</dc:format><dc:type
           rdf:resource="http://purl.org/dc/dcmitype/StillImage" /><dc:title></dc:title></cc:Work></rdf:RDF></metadata><defs
     id="defs837"><clipPath
       clipPathUnits="userSpaceOnUse"
       id="clipPath849"><path
         d="M 0,216 H 216 V 0 H 0 Z"
         id="path847" /></clipPath></defs><sodipodi:namedview
     pagecolor="#ffffff"
     bordercolor="#666666"
     borderopacity="1"
     objecttolerance="10"
     gridtolerance="10"
     guidetolerance="10"
     inkscape:pageopacity="0"
     inkscape:pageshadow="2"
     inkscape:window-width="1535"
     inkscape:window-height="877"
     id="namedview835"
     showgrid="false"
     inkscape:zoom="2.0381944"
     inkscape:cx="144"
     inkscape:cy="144"
     inkscape:window-x="-8"
     inkscape:window-y="-8"
     inkscape:window-maximized="1"
     inkscape:current-layer="g843" /><g
     id="g841"
     inkscape:groupmode="layer"
     inkscape:label="ttftftftftftf"
     transform="matrix(1.3333333,0,0,-1.3333333,0,288)"><g
       id="g843"><g
         id="g845"
         clip-path="url(#clipPath849)"
         transform="matrix(-1,0,0,1,206.7257,0)"><g
           id="g851"
           transform="translate(106.7578,112.7734)"><path
             d="m 0,0 c 14.869,13.446 26.354,23.473 32.961,30.08 6.604,6.604 12.055,12.055 16.351,16.351 4.294,4.294 6.856,7.065 7.687,8.309 v 5.775 l 0.888,0.712 c 4.501,-0.238 9.419,-0.355 14.751,-0.355 1.184,0 5.865,0.089 14.041,0.265 l 0.888,-0.799 v -4.176 l -0.711,-0.713 c -5.509,0 -9.272,-0.31 -11.285,-0.933 -2.015,-0.62 -4.963,-2.517 -8.842,-5.685 C 62.848,45.66 58.389,41.766 53.354,37.145 L 17.365,4.264 70.861,-45.232 c 8.589,-7.998 13.403,-12.354 14.441,-13.064 1.035,-0.709 3.183,-1.125 6.442,-1.243 l 0.621,-0.712 v -4.479 l -0.621,-0.71 c -3.436,0.237 -6.991,0.355 -10.664,0.355 -2.192,0 -6.991,0.629 -14.395,0.392 -5.392,5.093 -10.118,9.596 -14.174,13.507 C 48.451,-47.277 30.45,-31.4 0,-3.556 v -18.927 l 0.089,-17.33 c 0.059,-6.693 0.236,-11.018 0.534,-12.973 0.294,-1.956 0.725,-4.752 1.288,-5.402 0.563,-0.654 1.644,-1.202 3.243,-1.646 1.6,-0.444 6.285,-0.785 12.566,-1.022 l -0.036,-0.534 v -0.948 l 0.036,-0.71 c -0.296,0 -5.509,-0.824 -15.639,-0.469 -4.207,0.12 -7.496,0.179 -9.865,0.179 -1.837,0 -10.308,-0.235 -25.415,-0.71 l -0.71,-0.29 0.747,2.948 0.709,0.534 c 5.511,0.237 9.183,0.533 11.02,0.888 1.836,0.358 3.066,0.816 3.688,1.377 0.623,0.565 0.378,3.257 0.764,5.095 0.384,1.836 0.606,5.923 0.667,12.262 l 0.088,18.751 v 41.145 l -0.178,17.327 c -0.06,6.755 -0.222,11.107 -0.489,13.063 -0.266,1.955 -0.681,3.258 -1.243,3.911 -0.564,0.651 -1.644,1.184 -3.243,1.598 -1.601,0.414 -5.541,0.74 -11.82,0.978 l -0.71,0.623 v 2.948 l 0.71,0.623 11.109,-0.355 c 7.286,-0.237 12.054,-0.357 14.306,-0.357 2.013,0 8.515,1.237 23.504,1.712 L 16.431,60.11 V 57.162 L 15.72,56.539 C 11.633,56.419 8.479,56.243 6.256,56.005 4.035,55.768 2.42,55.324 1.413,54.672 0.405,54.021 -1.008,52.496 -1.333,50.096 -1.659,47.697 0.178,43.364 0.178,39.101 L 0,18.662 Z"
             style="fill:#dbbe31;fill-opacity:1;fill-rule:nonzero;stroke:none"
             id="path853" /></g><g
           id="g855"
           transform="translate(124.5469,169.188)"><path
             d="M 0,0 -0.712,-0.623 C -6.99,-0.86 -10.931,-1.187 -12.53,-1.601 c -1.6,-0.413 -2.68,-0.947 -3.243,-1.598 -0.563,-0.653 -0.978,-1.955 -1.245,-3.911 -0.267,-1.955 -0.429,-6.308 -0.489,-13.063 L -17.685,-37.5 v -41.145 l 0.09,-18.751 c 0.06,-6.339 0.282,-10.426 0.666,-12.262 0.386,-1.838 0.888,-3.036 1.51,-3.6 0.623,-0.562 1.854,-1.021 3.69,-1.377 1.836,-0.356 5.508,-0.652 11.017,-0.889 L 0,-116.057 v -4.443 l -0.712,-0.709 c -15.106,0.474 -23.577,0.709 -25.415,0.709 -2.368,0 -5.656,-0.058 -9.863,-0.178 -10.131,-0.356 -15.343,-0.531 -15.64,-0.531 l -0.711,0.709 v 4.443 l 0.711,0.533 c 6.279,0.237 10.219,0.578 11.818,1.023 1.6,0.444 2.682,0.992 3.244,1.645 0.564,0.65 0.993,1.953 1.289,3.908 0.297,1.955 0.475,6.281 0.532,12.974 l 0.09,17.329 V -37.5 c 0,20.912 -0.445,32.019 -1.333,33.324 -5.51,1.718 -11.375,2.575 -17.595,2.575 -8.887,0 -15.936,-1.997 -21.152,-5.998 -5.21,-3.998 -7.817,-9.906 -7.817,-17.728 0,-8.708 2.903,-15.522 8.708,-20.439 5.808,-4.917 12.339,-7.375 22.588,-7.375 1.719,0 4.119,0.089 7.198,0.268 l 0.888,-2.757 c -10.663,-12.144 -19.596,-25.326 -29.786,-39.542 -8.766,-12.264 -15.194,-20.885 -19.284,-25.862 -4.976,0.356 -9.566,0.534 -13.773,0.534 -3.911,0 -7.286,-0.178 -10.13,-0.534 l -0.799,0.8 v 4.177 l 0.71,0.712 c 2.134,0 3.687,0.089 4.665,0.265 0.978,0.179 2.148,0.667 3.509,1.467 1.363,0.799 4.386,4.266 9.065,10.398 4.68,6.132 9.066,11.951 13.151,17.461 l 12.621,16.706 c 4.325,5.687 7.317,9.688 8.973,11.998 -8.945,1.716 -15.963,4.278 -21.059,7.686 -5.095,3.406 -8.945,7.509 -11.554,12.309 -2.604,4.797 -3.911,9.685 -3.911,14.661 0,7.465 2.668,13.921 8.001,19.372 5.33,5.45 15.493,8.176 30.479,8.176 1.897,0 4.947,-0.061 9.153,-0.178 11.375,-0.414 20.41,-0.623 27.103,-0.623 6.043,0 14.485,0.237 25.326,0.712 L 0,4.442 Z"
             style="fill:#9d8c91;fill-opacity:1;fill-rule:nonzero;stroke:none"
             id="path857" /></g></g></g></g></svg>
